# xmcd
#
# Track frame offsets:
#	150
#	22247
#	40535
#	55271
#	67799
#	89563
#	111156
#	131164
#	154123
#	177650
#	199099
#	217514
#	241776
#
# Disc length: 3410 seconds
#
# Revision: 0
# Processed by: cddbd v1.5.2PL0 Copyright (c) Steve Scherf et al.
# Submitted via: audiograbber 1.83.01
#
DISCID=ae0d500d
DTITLE=Henry Toth - Breath
DYEAR=1996
DGENRE=Blues
TTITLE0=H
TTITLE1=Fly Away
TTITLE2=Mary Lou
TTITLE3=Mr Lee
TTITLE4=Tumblin´ Down
TTITLE5=Corrida
TTITLE6=Ray
TTITLE7=Let It Rain
TTITLE8=Dolphins
TTITLE9=I´m Easy
TTITLE10=Threestyle
TTITLE11=Golgotha
TTITLE12=A Heaven Full of Grace
EXTD=
EXTT0=
EXTT1=
EXTT2=
EXTT3=
EXTT4=
EXTT5=
EXTT6=
EXTT7=
EXTT8=
EXTT9=
EXTT10=
EXTT11=
EXTT12=
PLAYORDER=
